<svg width="54" height="54" viewBox="0 0 54 54" fill="none" xmlns="http://www.w3.org/2000/svg">
<path d="M27 49.5C21.0326 49.5 15.3097 47.1295 11.0901 42.9099C6.87053 38.6903 4.5 32.9674 4.5 27C4.5 21.0326 6.87053 15.3097 11.0901 11.0901C15.3097 6.87053 21.0326 4.5 27 4.5C27.7222 4.50386 28.4279 4.71618 29.0324 5.11145C29.6368 5.50673 30.1142 6.06813 30.4073 6.7282C30.7004 7.38827 30.7966 8.11893 30.6845 8.83238C30.5723 9.54583 30.2565 10.2117 29.775 10.75C29.2921 11.2899 28.9759 11.9581 28.8646 12.6738C28.7533 13.3895 28.8517 14.1222 29.1478 14.7832C29.444 15.4442 29.9252 16.0053 30.5334 16.3987C31.1416 16.7921 31.8507 17.0009 32.575 17H37C40.3152 17 43.4946 18.317 45.8388 20.6612C48.183 23.0054 49.5 26.1848 49.5 29.5C49.5 40.55 39.425 49.5 27 49.5ZM37 20.75L32.575 20.75C31.1285 20.7471 29.7137 20.3259 28.501 19.5372C27.2884 18.7486 26.3297 17.626 25.7405 16.3049C25.1513 14.9839 24.9567 13.5206 25.1802 12.0914C25.4037 10.6622 26.0356 9.32818 27 8.25C22.0272 8.25 17.2581 10.2254 13.7417 13.7417C10.2254 17.2581 8.25 22.0272 8.25 27C8.25 31.9728 10.2254 36.7419 13.7417 40.2583C17.2581 43.7746 22.0272 45.75 27 45.75C37.3375 45.75 45.75 38.4625 45.75 29.5C45.75 27.1794 44.8281 24.9538 43.1872 23.3128C41.5462 21.6719 39.3206 20.75 37 20.75Z" fill="#333333"/>
<path d="M14.5 25.75C16.5711 25.75 18.25 27.4289 18.25 29.5C18.25 31.5711 16.5711 33.25 14.5 33.25C12.4289 33.25 10.75 31.5711 10.75 29.5C10.75 27.4289 12.4289 25.75 14.5 25.75Z" fill="#333333"/>
<path d="M22 33.25C24.0711 33.25 25.75 34.9289 25.75 37C25.75 39.0711 24.0711 40.75 22 40.75C19.9289 40.75 18.25 39.0711 18.25 37C18.25 34.9289 19.9289 33.25 22 33.25Z" fill="#333333"/>
<path d="M32 33.25C34.0711 33.25 35.75 34.9289 35.75 37C35.75 39.0711 34.0711 40.75 32 40.75C29.9289 40.75 28.25 39.0711 28.25 37C28.25 34.9289 29.9289 33.25 32 33.25Z" fill="#333333"/>
<path d="M39.5 25.75C41.5711 25.75 43.25 27.4289 43.25 29.5C43.25 31.5711 41.5711 33.25 39.5 33.25C37.4289 33.25 35.75 31.5711 35.75 29.5C35.75 27.4289 37.4289 25.75 39.5 25.75Z" fill="#333333"/>
</svg>
