<svg width="19" height="19" viewBox="0 0 19 19" fill="none" xmlns="http://www.w3.org/2000/svg">
<path d="M9.6919 19C15.2848 19 19 15.1519 19 9.7204C19 9.09847 18.9341 8.6184 18.8423 8.1396H9.69319V11.4051H15.1943C14.9695 12.7921 13.5286 15.5002 9.69319 15.5002C6.3889 15.5002 3.69068 12.8174 3.69068 9.5C3.69068 6.1826 6.38761 3.49853 9.69319 3.49853C11.5838 3.49853 12.8398 4.28893 13.5544 4.9628L16.1855 2.48773C14.4913 0.933534 12.31 0 9.6919 0C4.3368 0 0 4.25093 0 9.5C0 14.7491 4.3368 19 9.6919 19Z" fill="black"/>
</svg>
