<svg width="59" height="43" viewBox="0 0 59 43" fill="none" xmlns="http://www.w3.org/2000/svg">
<path d="M1.8437 5.93736H57.1561C58.1739 5.93736 58.9998 4.77527 58.9998 3.34368C58.9998 1.91188 58.1738 0.75 57.1561 0.75H1.8437C0.825911 0.75 0 1.91209 0 3.34368C0 4.77527 0.826064 5.93736 1.8437 5.93736Z" fill="white"/>
<path d="M57.1561 18.9062H1.8437C0.825911 18.9062 0 20.0683 0 21.4999C0 22.9315 0.826064 24.0936 1.8437 24.0936H57.1561C58.1739 24.0936 58.9998 22.9315 58.9998 21.4999C58.9998 20.0683 58.1739 18.9062 57.1561 18.9062Z" fill="white"/>
<path d="M57.1562 37.0625H20.2812C19.2634 37.0625 18.4375 38.2246 18.4375 39.6562C18.4375 41.088 19.2636 42.2499 20.2812 42.2499H57.1562C58.174 42.2499 58.9999 41.0878 58.9999 39.6562C59 38.2244 58.174 37.0625 57.1562 37.0625Z" fill="white"/>
</svg>
